<svg xmlns="http://www.w3.org/2000/svg" viewBox="0 0 256 256">
    <rect width="256" height="256" fill="#1F2D3A" />

    <path
        fill="#3BA3FF"
        d="M40 128c30-44 63-66 100-66 36 0 68 20 95 59l1 1-1 1c-27 39-59 59-95 59-37 0-70-22-100-66Zm175-20c-6-8-12-15-19-20-12-9-26-14-41-14-27 0-52 15-76 45 24 30 49 45 76 45 15 0 29-5 41-14 7-5 13-12 19-20l6-8-6-8Z"
    />

    <path
        fill="#3BA3FF"
        d="M194 94l44 34-44 34 10-34-10-34Z"
    />

    <circle cx="128" cy="128" r="48" fill="#1F2D3A" />

    <path
        fill="#FF5B5B"
        d="M356 325 325 356-100-69-69-100 356 325Z"
    />
</svg>
